<mxfile host="app.diagrams.net" modified="2021-09-16T04:15:33.107Z" agent="5.0 (Macintosh; Intel Mac OS X 10_15_2) AppleWebKit/537.36 (KHTML, like Gecko) Chrome/92.0.4515.159 Safari/537.36" etag="k43xKFUjRcl5DMJOGQmo" version="15.2.5" type="github">
  <diagram id="C5RBs43oDa-KdzZeNtuy" name="Page-1">
    <mxGraphModel dx="2573" dy="1011" grid="1" gridSize="10" guides="1" tooltips="1" connect="1" arrows="1" fold="1" page="1" pageScale="1" pageWidth="827" pageHeight="1169" math="0" shadow="0">
      <root>
        <mxCell id="WIyWlLk6GJQsqaUBKTNV-0" />
        <mxCell id="WIyWlLk6GJQsqaUBKTNV-1" parent="WIyWlLk6GJQsqaUBKTNV-0" />
        <mxCell id="s08Ji13Y1CFmz7NRCLcD-1" value="" style="endArrow=none;dashed=1;html=1;strokeColor=#000000;strokeWidth=2;dashPattern=1 2;" edge="1" parent="WIyWlLk6GJQsqaUBKTNV-1">
          <mxGeometry width="50" height="50" relative="1" as="geometry">
            <mxPoint x="-73" y="800" as="sourcePoint" />
            <mxPoint x="757" y="800" as="targetPoint" />
          </mxGeometry>
        </mxCell>
        <mxCell id="n1WyoDE3m9YggTQjJOGG-90" value="" style="rounded=1;whiteSpace=wrap;html=1;shadow=1;" parent="WIyWlLk6GJQsqaUBKTNV-1" vertex="1">
          <mxGeometry x="507" y="566" width="240" height="205" as="geometry" />
        </mxCell>
        <mxCell id="n1WyoDE3m9YggTQjJOGG-88" value="" style="rounded=1;whiteSpace=wrap;html=1;shadow=1;dashed=1;" parent="WIyWlLk6GJQsqaUBKTNV-1" vertex="1">
          <mxGeometry x="-100" y="570" width="120" height="104" as="geometry" />
        </mxCell>
        <mxCell id="n1WyoDE3m9YggTQjJOGG-87" value="" style="rounded=1;whiteSpace=wrap;html=1;shadow=1;" parent="WIyWlLk6GJQsqaUBKTNV-1" vertex="1">
          <mxGeometry x="517" y="820" width="240" height="365" as="geometry" />
        </mxCell>
        <mxCell id="n1WyoDE3m9YggTQjJOGG-44" value="" style="rounded=1;whiteSpace=wrap;html=1;fillColor=#FFB366;strokeColor=#d6b656;shadow=1;" parent="WIyWlLk6GJQsqaUBKTNV-1" vertex="1">
          <mxGeometry x="90" y="820" width="385.25" height="160" as="geometry" />
        </mxCell>
        <mxCell id="n1WyoDE3m9YggTQjJOGG-2" value="" style="rounded=1;whiteSpace=wrap;html=1;fillColor=#FFB366;strokeColor=#d6b656;shadow=1;" parent="WIyWlLk6GJQsqaUBKTNV-1" vertex="1">
          <mxGeometry x="95" y="570" width="360" height="90" as="geometry" />
        </mxCell>
        <mxCell id="n1WyoDE3m9YggTQjJOGG-3" value="&lt;b&gt;idle-mtop-search： 搜索业务层&lt;/b&gt;" style="text;html=1;resizable=0;autosize=1;align=center;verticalAlign=middle;points=[];fillColor=none;strokeColor=none;rounded=0;shadow=1;" parent="WIyWlLk6GJQsqaUBKTNV-1" vertex="1">
          <mxGeometry x="165" y="575" width="190" height="20" as="geometry" />
        </mxCell>
        <mxCell id="n1WyoDE3m9YggTQjJOGG-4" value="" style="rounded=1;whiteSpace=wrap;html=1;fillColor=#FFB366;strokeColor=#d6b656;shadow=1;" parent="WIyWlLk6GJQsqaUBKTNV-1" vertex="1">
          <mxGeometry x="95" y="691" width="360" height="94" as="geometry" />
        </mxCell>
        <mxCell id="n1WyoDE3m9YggTQjJOGG-6" value="&lt;b&gt;idle-search： Java网关&lt;/b&gt;" style="text;html=1;resizable=0;autosize=1;align=center;verticalAlign=middle;points=[];fillColor=none;strokeColor=none;rounded=0;shadow=1;" parent="WIyWlLk6GJQsqaUBKTNV-1" vertex="1">
          <mxGeometry x="190" y="691" width="140" height="20" as="geometry" />
        </mxCell>
        <mxCell id="n1WyoDE3m9YggTQjJOGG-8" value="算法侧" style="rounded=1;whiteSpace=wrap;html=1;fillColor=#B9E0A5;strokeColor=#FFFFFF;shadow=1;" parent="WIyWlLk6GJQsqaUBKTNV-1" vertex="1">
          <mxGeometry x="-90" y="625" width="100" height="39" as="geometry" />
        </mxCell>
        <mxCell id="n1WyoDE3m9YggTQjJOGG-9" value="工程侧" style="rounded=1;whiteSpace=wrap;html=1;fillColor=#FFB366;strokeColor=#d6b656;shadow=1;" parent="WIyWlLk6GJQsqaUBKTNV-1" vertex="1">
          <mxGeometry x="-90" y="574" width="100" height="35" as="geometry" />
        </mxCell>
        <mxCell id="n1WyoDE3m9YggTQjJOGG-10" value="卡片合并" style="rounded=1;whiteSpace=wrap;html=1;fillColor=#D4E1F5;strokeColor=#FFFFFF;shadow=1;" parent="WIyWlLk6GJQsqaUBKTNV-1" vertex="1">
          <mxGeometry x="280" y="610" width="90" height="40" as="geometry" />
        </mxCell>
        <mxCell id="n1WyoDE3m9YggTQjJOGG-11" value="业务逻辑" style="rounded=1;whiteSpace=wrap;html=1;fillColor=#D4E1F5;strokeColor=#FFFFFF;shadow=1;" parent="WIyWlLk6GJQsqaUBKTNV-1" vertex="1">
          <mxGeometry x="100" y="610" width="90" height="40" as="geometry" />
        </mxCell>
        <mxCell id="n1WyoDE3m9YggTQjJOGG-12" value="干预、投放" style="rounded=1;whiteSpace=wrap;html=1;fillColor=#D4E1F5;strokeColor=#FFFFFF;shadow=1;" parent="WIyWlLk6GJQsqaUBKTNV-1" vertex="1">
          <mxGeometry x="379" y="610" width="70" height="40" as="geometry" />
        </mxCell>
        <mxCell id="n1WyoDE3m9YggTQjJOGG-13" value="商业化" style="rounded=1;whiteSpace=wrap;html=1;fillColor=#D4E1F5;strokeColor=#FFFFFF;shadow=1;" parent="WIyWlLk6GJQsqaUBKTNV-1" vertex="1">
          <mxGeometry x="201" y="610" width="70" height="40" as="geometry" />
        </mxCell>
        <mxCell id="n1WyoDE3m9YggTQjJOGG-16" value="" style="rounded=1;whiteSpace=wrap;html=1;fillColor=#FFB366;strokeColor=#d6b656;shadow=1;" parent="WIyWlLk6GJQsqaUBKTNV-1" vertex="1">
          <mxGeometry x="517" y="579" width="220" height="110" as="geometry" />
        </mxCell>
        <mxCell id="n1WyoDE3m9YggTQjJOGG-17" value="鲲鹏（基于奥格插件）" style="rounded=1;whiteSpace=wrap;html=1;fillColor=#D4E1F5;strokeColor=#FFFFFF;shadow=1;" parent="WIyWlLk6GJQsqaUBKTNV-1" vertex="1">
          <mxGeometry x="547" y="655.5" width="160" height="23.5" as="geometry" />
        </mxCell>
        <mxCell id="n1WyoDE3m9YggTQjJOGG-18" value="&lt;b&gt;配置投放平台&lt;/b&gt;" style="text;html=1;resizable=0;autosize=1;align=center;verticalAlign=middle;points=[];fillColor=none;strokeColor=none;rounded=0;shadow=1;" parent="WIyWlLk6GJQsqaUBKTNV-1" vertex="1">
          <mxGeometry x="582" y="584" width="90" height="20" as="geometry" />
        </mxCell>
        <mxCell id="n1WyoDE3m9YggTQjJOGG-19" value="idleadmin" style="rounded=1;whiteSpace=wrap;html=1;fillColor=#D4E1F5;strokeColor=#FFFFFF;shadow=1;" parent="WIyWlLk6GJQsqaUBKTNV-1" vertex="1">
          <mxGeometry x="627" y="619" width="80" height="28" as="geometry" />
        </mxCell>
        <mxCell id="n1WyoDE3m9YggTQjJOGG-20" value="引擎访问封装" style="rounded=1;whiteSpace=wrap;html=1;fillColor=#D4E1F5;strokeColor=#FFFFFF;shadow=1;" parent="WIyWlLk6GJQsqaUBKTNV-1" vertex="1">
          <mxGeometry x="109" y="730" width="70" height="40" as="geometry" />
        </mxCell>
        <mxCell id="n1WyoDE3m9YggTQjJOGG-21" value="分桶" style="rounded=1;whiteSpace=wrap;html=1;fillColor=#D4E1F5;strokeColor=#FFFFFF;shadow=1;" parent="WIyWlLk6GJQsqaUBKTNV-1" vertex="1">
          <mxGeometry x="188" y="730" width="90" height="40" as="geometry" />
        </mxCell>
        <mxCell id="n1WyoDE3m9YggTQjJOGG-22" value="切流" style="rounded=1;whiteSpace=wrap;html=1;fillColor=#D4E1F5;strokeColor=#FFFFFF;shadow=1;" parent="WIyWlLk6GJQsqaUBKTNV-1" vertex="1">
          <mxGeometry x="288" y="730" width="80" height="40" as="geometry" />
        </mxCell>
        <mxCell id="n1WyoDE3m9YggTQjJOGG-23" value="告警" style="rounded=1;whiteSpace=wrap;html=1;fillColor=#D4E1F5;strokeColor=#FFFFFF;shadow=1;" parent="WIyWlLk6GJQsqaUBKTNV-1" vertex="1">
          <mxGeometry x="378" y="730" width="71" height="40" as="geometry" />
        </mxCell>
        <mxCell id="n1WyoDE3m9YggTQjJOGG-25" value="&lt;b&gt;外部应用&lt;/b&gt;" style="rounded=1;whiteSpace=wrap;html=1;fillColor=#FFB366;strokeColor=#FFFFFF;shadow=1;" parent="WIyWlLk6GJQsqaUBKTNV-1" vertex="1">
          <mxGeometry x="-90" y="717" width="100" height="45" as="geometry" />
        </mxCell>
        <mxCell id="n1WyoDE3m9YggTQjJOGG-28" value="" style="endArrow=classic;html=1;exitX=1;exitY=0.5;exitDx=0;exitDy=0;" parent="WIyWlLk6GJQsqaUBKTNV-1" source="n1WyoDE3m9YggTQjJOGG-25" edge="1">
          <mxGeometry width="50" height="50" relative="1" as="geometry">
            <mxPoint x="380" y="581" as="sourcePoint" />
            <mxPoint x="110" y="740" as="targetPoint" />
          </mxGeometry>
        </mxCell>
        <mxCell id="n1WyoDE3m9YggTQjJOGG-29" value="&lt;span style=&quot;color: rgb(0 , 0 , 0) ; font-family: &amp;#34;helvetica&amp;#34; ; font-size: 12px ; font-style: normal ; font-weight: 400 ; letter-spacing: normal ; text-align: center ; text-indent: 0px ; text-transform: none ; word-spacing: 0px ; background-color: rgb(248 , 249 , 250) ; display: inline ; float: none&quot;&gt;summary访问&lt;/span&gt;" style="text;whiteSpace=wrap;html=1;" parent="WIyWlLk6GJQsqaUBKTNV-1" vertex="1">
          <mxGeometry x="20" y="717" width="90" height="30" as="geometry" />
        </mxCell>
        <mxCell id="n1WyoDE3m9YggTQjJOGG-30" value="" style="endArrow=classic;html=1;exitX=0.5;exitY=1;exitDx=0;exitDy=0;entryX=0.5;entryY=0;entryDx=0;entryDy=0;" parent="WIyWlLk6GJQsqaUBKTNV-1" source="n1WyoDE3m9YggTQjJOGG-2" target="n1WyoDE3m9YggTQjJOGG-4" edge="1">
          <mxGeometry width="50" height="50" relative="1" as="geometry">
            <mxPoint x="380" y="700" as="sourcePoint" />
            <mxPoint x="430" y="650" as="targetPoint" />
          </mxGeometry>
        </mxCell>
        <mxCell id="n1WyoDE3m9YggTQjJOGG-31" value="&lt;span style=&quot;color: rgb(0 , 0 , 0) ; font-family: &amp;#34;helvetica&amp;#34; ; font-size: 12px ; font-style: normal ; font-weight: 400 ; letter-spacing: normal ; text-align: center ; text-indent: 0px ; text-transform: none ; word-spacing: 0px ; background-color: rgb(248 , 249 , 250) ; display: inline ; float: none&quot;&gt;搜索请求&lt;/span&gt;" style="text;whiteSpace=wrap;html=1;" parent="WIyWlLk6GJQsqaUBKTNV-1" vertex="1">
          <mxGeometry x="288" y="666" width="90" height="30" as="geometry" />
        </mxCell>
        <mxCell id="n1WyoDE3m9YggTQjJOGG-32" value="" style="rounded=1;whiteSpace=wrap;html=1;fillColor=#D4E1F5;strokeColor=#FFFFFF;shadow=1;" parent="WIyWlLk6GJQsqaUBKTNV-1" vertex="1">
          <mxGeometry x="330" y="825.25" width="140" height="154.75" as="geometry" />
        </mxCell>
        <mxCell id="n1WyoDE3m9YggTQjJOGG-33" value="&lt;b&gt;闲鱼主搜 - TPP&lt;/b&gt;" style="text;html=1;resizable=0;autosize=1;align=center;verticalAlign=middle;points=[];fillColor=none;strokeColor=none;rounded=0;shadow=1;" parent="WIyWlLk6GJQsqaUBKTNV-1" vertex="1">
          <mxGeometry x="345" y="830" width="100" height="20" as="geometry" />
        </mxCell>
        <mxCell id="n1WyoDE3m9YggTQjJOGG-38" value="" style="rounded=1;whiteSpace=wrap;html=1;fillColor=#D4E1F5;strokeColor=#FFFFFF;shadow=1;" parent="WIyWlLk6GJQsqaUBKTNV-1" vertex="1">
          <mxGeometry x="210" y="825.25" width="115" height="134.75" as="geometry" />
        </mxCell>
        <mxCell id="n1WyoDE3m9YggTQjJOGG-39" value="&lt;b&gt;综合网关 (迁移中)&lt;br&gt;SPL&lt;br&gt;&lt;/b&gt;" style="text;html=1;resizable=0;autosize=1;align=center;verticalAlign=middle;points=[];fillColor=none;strokeColor=none;rounded=0;shadow=1;" parent="WIyWlLk6GJQsqaUBKTNV-1" vertex="1">
          <mxGeometry x="208" y="832" width="110" height="30" as="geometry" />
        </mxCell>
        <mxCell id="n1WyoDE3m9YggTQjJOGG-42" value="" style="rounded=1;whiteSpace=wrap;html=1;fillColor=#D4E1F5;shadow=1;strokeColor=#FFFFFF;" parent="WIyWlLk6GJQsqaUBKTNV-1" vertex="1">
          <mxGeometry x="99.5" y="825.25" width="100.5" height="134.75" as="geometry" />
        </mxCell>
        <mxCell id="n1WyoDE3m9YggTQjJOGG-43" value="QP&lt;br&gt;（Query Planner）" style="rounded=1;whiteSpace=wrap;html=1;fillColor=#FFFFFF;strokeColor=#000000;shadow=1;" parent="WIyWlLk6GJQsqaUBKTNV-1" vertex="1">
          <mxGeometry x="340" y="852.63" width="120" height="40" as="geometry" />
        </mxCell>
        <mxCell id="n1WyoDE3m9YggTQjJOGG-45" value="算法重排" style="rounded=1;whiteSpace=wrap;html=1;fillColor=#FFFFFF;strokeColor=#000000;shadow=1;" parent="WIyWlLk6GJQsqaUBKTNV-1" vertex="1">
          <mxGeometry x="340" y="940" width="120" height="33" as="geometry" />
        </mxCell>
        <mxCell id="n1WyoDE3m9YggTQjJOGG-46" value="&lt;b&gt;综合网关（在建）&lt;br&gt;TPP&lt;/b&gt;" style="text;html=1;resizable=0;autosize=1;align=center;verticalAlign=middle;points=[];fillColor=none;strokeColor=none;rounded=0;shadow=1;" parent="WIyWlLk6GJQsqaUBKTNV-1" vertex="1">
          <mxGeometry x="98" y="832" width="110" height="30" as="geometry" />
        </mxCell>
        <mxCell id="n1WyoDE3m9YggTQjJOGG-47" value="垂搜网关&lt;br&gt;（成交价搜索...）" style="rounded=1;whiteSpace=wrap;html=1;fillColor=#FFFFFF;strokeColor=#000000;shadow=1;" parent="WIyWlLk6GJQsqaUBKTNV-1" vertex="1">
          <mxGeometry x="100" y="860" width="100" height="40" as="geometry" />
        </mxCell>
        <mxCell id="n1WyoDE3m9YggTQjJOGG-48" value="" style="rounded=1;whiteSpace=wrap;html=1;fillColor=#FFFFFF;strokeColor=#000000;shadow=1;dashed=1;" parent="WIyWlLk6GJQsqaUBKTNV-1" vertex="1">
          <mxGeometry x="100.25" y="910" width="97.75" height="40" as="geometry" />
        </mxCell>
        <mxCell id="n1WyoDE3m9YggTQjJOGG-49" value="Summary访问" style="rounded=1;whiteSpace=wrap;html=1;fillColor=#FFFFFF;strokeColor=#000000;shadow=1;" parent="WIyWlLk6GJQsqaUBKTNV-1" vertex="1">
          <mxGeometry x="220" y="862" width="98" height="40" as="geometry" />
        </mxCell>
        <mxCell id="n1WyoDE3m9YggTQjJOGG-50" value="用户搜索" style="rounded=1;whiteSpace=wrap;html=1;fillColor=#FFFFFF;strokeColor=#000000;shadow=1;" parent="WIyWlLk6GJQsqaUBKTNV-1" vertex="1">
          <mxGeometry x="220" y="910" width="100" height="40" as="geometry" />
        </mxCell>
        <mxCell id="n1WyoDE3m9YggTQjJOGG-56" value="" style="endArrow=classic;html=1;exitX=0.5;exitY=1;exitDx=0;exitDy=0;entryX=0.5;entryY=0;entryDx=0;entryDy=0;" parent="WIyWlLk6GJQsqaUBKTNV-1" source="n1WyoDE3m9YggTQjJOGG-4" target="n1WyoDE3m9YggTQjJOGG-42" edge="1">
          <mxGeometry width="50" height="50" relative="1" as="geometry">
            <mxPoint x="285" y="794" as="sourcePoint" />
            <mxPoint x="295" y="710" as="targetPoint" />
          </mxGeometry>
        </mxCell>
        <mxCell id="n1WyoDE3m9YggTQjJOGG-57" value="" style="endArrow=classic;html=1;exitX=0.5;exitY=1;exitDx=0;exitDy=0;" parent="WIyWlLk6GJQsqaUBKTNV-1" source="n1WyoDE3m9YggTQjJOGG-4" edge="1">
          <mxGeometry width="50" height="50" relative="1" as="geometry">
            <mxPoint x="280" y="790" as="sourcePoint" />
            <mxPoint x="275" y="824" as="targetPoint" />
          </mxGeometry>
        </mxCell>
        <mxCell id="n1WyoDE3m9YggTQjJOGG-58" value="" style="endArrow=classic;html=1;exitX=0.5;exitY=1;exitDx=0;exitDy=0;" parent="WIyWlLk6GJQsqaUBKTNV-1" source="n1WyoDE3m9YggTQjJOGG-4" edge="1">
          <mxGeometry width="50" height="50" relative="1" as="geometry">
            <mxPoint x="280" y="794" as="sourcePoint" />
            <mxPoint x="400" y="820" as="targetPoint" />
          </mxGeometry>
        </mxCell>
        <mxCell id="n1WyoDE3m9YggTQjJOGG-59" value="" style="shape=singleArrow;direction=west;whiteSpace=wrap;html=1;rounded=1;shadow=1;strokeColor=#000000;fillColor=#FFFFFF;gradientColor=none;rotation=-30;arrowWidth=0.29769793236413683;arrowSize=0.20046510613739665;" parent="WIyWlLk6GJQsqaUBKTNV-1" vertex="1">
          <mxGeometry x="159.54" y="900.3" width="65" height="17.13" as="geometry" />
        </mxCell>
        <mxCell id="n1WyoDE3m9YggTQjJOGG-61" value="" style="shape=singleArrow;direction=west;whiteSpace=wrap;html=1;rounded=1;shadow=1;strokeColor=#000000;fillColor=#FFFFFF;gradientColor=none;rotation=30;arrowWidth=0.29769793236413683;arrowSize=0.20046510613739665;" parent="WIyWlLk6GJQsqaUBKTNV-1" vertex="1">
          <mxGeometry x="160.77" y="899.91" width="61.46" height="12.63" as="geometry" />
        </mxCell>
        <mxCell id="n1WyoDE3m9YggTQjJOGG-64" value="" style="rounded=1;whiteSpace=wrap;html=1;fillColor=#FFB366;strokeColor=#d6b656;shadow=1;" parent="WIyWlLk6GJQsqaUBKTNV-1" vertex="1">
          <mxGeometry x="89" y="1008.1800000000001" width="389" height="188.82" as="geometry" />
        </mxCell>
        <mxCell id="n1WyoDE3m9YggTQjJOGG-65" value="商品主搜引擎" style="rounded=1;whiteSpace=wrap;html=1;fillColor=#D4E1F5;shadow=1;strokeColor=#FFFFFF;" parent="WIyWlLk6GJQsqaUBKTNV-1" vertex="1">
          <mxGeometry x="108" y="1057" width="120" height="52.37" as="geometry" />
        </mxCell>
        <mxCell id="n1WyoDE3m9YggTQjJOGG-66" value="" style="shape=doubleArrow;whiteSpace=wrap;html=1;rounded=1;shadow=1;strokeColor=#000000;fillColor=#FFFFFF;gradientColor=none;" parent="WIyWlLk6GJQsqaUBKTNV-1" vertex="1">
          <mxGeometry x="455" y="622.5" width="55" height="15" as="geometry" />
        </mxCell>
        <mxCell id="n1WyoDE3m9YggTQjJOGG-67" value="用户搜索引擎" style="rounded=1;whiteSpace=wrap;html=1;fillColor=#D4E1F5;shadow=1;strokeColor=#FFFFFF;" parent="WIyWlLk6GJQsqaUBKTNV-1" vertex="1">
          <mxGeometry x="107" y="1127" width="121" height="52.37" as="geometry" />
        </mxCell>
        <mxCell id="n1WyoDE3m9YggTQjJOGG-68" value="优品引擎" style="rounded=1;whiteSpace=wrap;html=1;fillColor=#D4E1F5;shadow=1;strokeColor=#FFFFFF;" parent="WIyWlLk6GJQsqaUBKTNV-1" vertex="1">
          <mxGeometry x="238.17" y="1057" width="114.83" height="52.37" as="geometry" />
        </mxCell>
        <mxCell id="n1WyoDE3m9YggTQjJOGG-69" value="Summary引擎" style="rounded=1;whiteSpace=wrap;html=1;fillColor=#D4E1F5;shadow=1;strokeColor=#FFFFFF;" parent="WIyWlLk6GJQsqaUBKTNV-1" vertex="1">
          <mxGeometry x="239.37999999999997" y="1127" width="112.41" height="52.37" as="geometry" />
        </mxCell>
        <mxCell id="n1WyoDE3m9YggTQjJOGG-70" value="社区帖子" style="rounded=1;whiteSpace=wrap;html=1;fillColor=#D4E1F5;shadow=1;strokeColor=#FFFFFF;" parent="WIyWlLk6GJQsqaUBKTNV-1" vertex="1">
          <mxGeometry x="358.41999999999996" y="1057" width="114.83" height="52.37" as="geometry" />
        </mxCell>
        <mxCell id="n1WyoDE3m9YggTQjJOGG-71" value="成交价搜索" style="rounded=1;whiteSpace=wrap;html=1;fillColor=#D4E1F5;shadow=1;strokeColor=#FFFFFF;" parent="WIyWlLk6GJQsqaUBKTNV-1" vertex="1">
          <mxGeometry x="358.41999999999996" y="1127" width="114.83" height="52.37" as="geometry" />
        </mxCell>
        <mxCell id="n1WyoDE3m9YggTQjJOGG-72" value="&lt;b&gt;基于Tisplus平台的Ha3服务&lt;/b&gt;" style="text;html=1;resizable=0;autosize=1;align=center;verticalAlign=middle;points=[];fillColor=none;strokeColor=none;rounded=0;shadow=1;" parent="WIyWlLk6GJQsqaUBKTNV-1" vertex="1">
          <mxGeometry x="191.79" y="1017" width="160" height="20" as="geometry" />
        </mxCell>
        <mxCell id="n1WyoDE3m9YggTQjJOGG-73" value="" style="endArrow=classic;html=1;" parent="WIyWlLk6GJQsqaUBKTNV-1" edge="1">
          <mxGeometry width="50" height="50" relative="1" as="geometry">
            <mxPoint x="285" y="970" as="sourcePoint" />
            <mxPoint x="285" y="1012" as="targetPoint" />
          </mxGeometry>
        </mxCell>
        <mxCell id="n1WyoDE3m9YggTQjJOGG-74" value="" style="rounded=1;whiteSpace=wrap;html=1;fillColor=#B9E0A5;strokeColor=#FFFFFF;shadow=1;" parent="WIyWlLk6GJQsqaUBKTNV-1" vertex="1">
          <mxGeometry x="527" y="831" width="220" height="88" as="geometry" />
        </mxCell>
        <mxCell id="n1WyoDE3m9YggTQjJOGG-75" value="&lt;b&gt;QP服务&lt;/b&gt;" style="text;html=1;resizable=0;autosize=1;align=center;verticalAlign=middle;points=[];fillColor=none;strokeColor=none;rounded=0;shadow=1;" parent="WIyWlLk6GJQsqaUBKTNV-1" vertex="1">
          <mxGeometry x="602" y="839" width="60" height="20" as="geometry" />
        </mxCell>
        <mxCell id="n1WyoDE3m9YggTQjJOGG-76" value="类目预测" style="rounded=1;whiteSpace=wrap;html=1;fillColor=#FFFFFF;strokeColor=#000000;shadow=1;" parent="WIyWlLk6GJQsqaUBKTNV-1" vertex="1">
          <mxGeometry x="537" y="871.63" width="60" height="40" as="geometry" />
        </mxCell>
        <mxCell id="n1WyoDE3m9YggTQjJOGG-77" value="同义词" style="rounded=1;whiteSpace=wrap;html=1;fillColor=#FFFFFF;strokeColor=#000000;shadow=1;" parent="WIyWlLk6GJQsqaUBKTNV-1" vertex="1">
          <mxGeometry x="607" y="871.63" width="60" height="40" as="geometry" />
        </mxCell>
        <mxCell id="n1WyoDE3m9YggTQjJOGG-78" value="个性化" style="rounded=1;whiteSpace=wrap;html=1;fillColor=#FFFFFF;strokeColor=#000000;shadow=1;" parent="WIyWlLk6GJQsqaUBKTNV-1" vertex="1">
          <mxGeometry x="677" y="869" width="60" height="42.63" as="geometry" />
        </mxCell>
        <mxCell id="n1WyoDE3m9YggTQjJOGG-79" value="" style="rounded=1;whiteSpace=wrap;html=1;fillColor=#B9E0A5;strokeColor=#FFFFFF;shadow=1;" parent="WIyWlLk6GJQsqaUBKTNV-1" vertex="1">
          <mxGeometry x="527" y="1065" width="220" height="88" as="geometry" />
        </mxCell>
        <mxCell id="n1WyoDE3m9YggTQjJOGG-80" value="&lt;b&gt;算法重排&lt;/b&gt;" style="text;html=1;resizable=0;autosize=1;align=center;verticalAlign=middle;points=[];fillColor=none;strokeColor=none;rounded=0;shadow=1;" parent="WIyWlLk6GJQsqaUBKTNV-1" vertex="1">
          <mxGeometry x="607" y="1075" width="60" height="20" as="geometry" />
        </mxCell>
        <mxCell id="n1WyoDE3m9YggTQjJOGG-81" value="控频率" style="rounded=1;whiteSpace=wrap;html=1;fillColor=#FFFFFF;strokeColor=#000000;shadow=1;" parent="WIyWlLk6GJQsqaUBKTNV-1" vertex="1">
          <mxGeometry x="537" y="1105" width="60" height="40" as="geometry" />
        </mxCell>
        <mxCell id="n1WyoDE3m9YggTQjJOGG-82" value="去重" style="rounded=1;whiteSpace=wrap;html=1;fillColor=#FFFFFF;strokeColor=#000000;shadow=1;" parent="WIyWlLk6GJQsqaUBKTNV-1" vertex="1">
          <mxGeometry x="607" y="1105" width="60" height="40" as="geometry" />
        </mxCell>
        <mxCell id="n1WyoDE3m9YggTQjJOGG-83" value="打压" style="rounded=1;whiteSpace=wrap;html=1;fillColor=#FFFFFF;strokeColor=#000000;shadow=1;" parent="WIyWlLk6GJQsqaUBKTNV-1" vertex="1">
          <mxGeometry x="677" y="1105" width="60" height="40" as="geometry" />
        </mxCell>
        <mxCell id="n1WyoDE3m9YggTQjJOGG-85" value="" style="shape=doubleArrow;whiteSpace=wrap;html=1;rounded=1;shadow=1;strokeColor=#000000;fillColor=#FFFFFF;gradientColor=none;" parent="WIyWlLk6GJQsqaUBKTNV-1" vertex="1">
          <mxGeometry x="477" y="877.63" width="40" height="15" as="geometry" />
        </mxCell>
        <mxCell id="n1WyoDE3m9YggTQjJOGG-92" value="KFC" style="rounded=1;whiteSpace=wrap;html=1;fillColor=#D4E1F5;strokeColor=#FFFFFF;shadow=1;" parent="WIyWlLk6GJQsqaUBKTNV-1" vertex="1">
          <mxGeometry x="547" y="619" width="70" height="30" as="geometry" />
        </mxCell>
        <mxCell id="n1WyoDE3m9YggTQjJOGG-94" value="" style="rounded=1;whiteSpace=wrap;html=1;fillColor=#FFB366;strokeColor=#d6b656;shadow=1;" parent="WIyWlLk6GJQsqaUBKTNV-1" vertex="1">
          <mxGeometry x="517" y="695" width="220" height="64" as="geometry" />
        </mxCell>
        <mxCell id="n1WyoDE3m9YggTQjJOGG-95" value="&lt;b&gt;外部服务&lt;/b&gt;" style="text;html=1;resizable=0;autosize=1;align=center;verticalAlign=middle;points=[];fillColor=none;strokeColor=none;rounded=0;shadow=1;" parent="WIyWlLk6GJQsqaUBKTNV-1" vertex="1">
          <mxGeometry x="592" y="700" width="60" height="20" as="geometry" />
        </mxCell>
        <mxCell id="n1WyoDE3m9YggTQjJOGG-96" value="阿里妈妈" style="rounded=1;whiteSpace=wrap;html=1;fillColor=#D4E1F5;strokeColor=#FFFFFF;shadow=1;" parent="WIyWlLk6GJQsqaUBKTNV-1" vertex="1">
          <mxGeometry x="527" y="726" width="70" height="30" as="geometry" />
        </mxCell>
        <mxCell id="n1WyoDE3m9YggTQjJOGG-98" value="SNS" style="rounded=1;whiteSpace=wrap;html=1;fillColor=#D4E1F5;strokeColor=#FFFFFF;shadow=1;" parent="WIyWlLk6GJQsqaUBKTNV-1" vertex="1">
          <mxGeometry x="602" y="726" width="70" height="30" as="geometry" />
        </mxCell>
        <mxCell id="n1WyoDE3m9YggTQjJOGG-100" value="&lt;font style=&quot;font-size: 16px&quot;&gt;&lt;b&gt;...&lt;/b&gt;&lt;/font&gt;" style="rounded=1;whiteSpace=wrap;html=1;fillColor=#D4E1F5;strokeColor=#FFFFFF;shadow=1;" parent="WIyWlLk6GJQsqaUBKTNV-1" vertex="1">
          <mxGeometry x="677" y="726" width="60" height="30" as="geometry" />
        </mxCell>
        <mxCell id="n1WyoDE3m9YggTQjJOGG-106" value="Ha3排序" style="rounded=1;whiteSpace=wrap;html=1;fillColor=#FFFFFF;strokeColor=#000000;shadow=1;" parent="WIyWlLk6GJQsqaUBKTNV-1" vertex="1">
          <mxGeometry x="340" y="900" width="120" height="32.63" as="geometry" />
        </mxCell>
        <mxCell id="n1WyoDE3m9YggTQjJOGG-107" value="" style="rounded=1;whiteSpace=wrap;html=1;fillColor=#B9E0A5;strokeColor=#FFFFFF;shadow=1;" parent="WIyWlLk6GJQsqaUBKTNV-1" vertex="1">
          <mxGeometry x="527" y="932.63" width="220" height="107.37" as="geometry" />
        </mxCell>
        <mxCell id="n1WyoDE3m9YggTQjJOGG-109" value="&lt;b&gt;Ha3排序&lt;/b&gt;" style="text;html=1;resizable=0;autosize=1;align=center;verticalAlign=middle;points=[];fillColor=none;strokeColor=none;rounded=0;shadow=1;" parent="WIyWlLk6GJQsqaUBKTNV-1" vertex="1">
          <mxGeometry x="607" y="940" width="60" height="20" as="geometry" />
        </mxCell>
        <mxCell id="n1WyoDE3m9YggTQjJOGG-110" value="粗排" style="rounded=1;whiteSpace=wrap;html=1;fillColor=#FFFFFF;strokeColor=#000000;shadow=1;" parent="WIyWlLk6GJQsqaUBKTNV-1" vertex="1">
          <mxGeometry x="537" y="990" width="93" height="40" as="geometry" />
        </mxCell>
        <mxCell id="n1WyoDE3m9YggTQjJOGG-112" value="精排" style="rounded=1;whiteSpace=wrap;html=1;fillColor=#FFFFFF;strokeColor=#000000;shadow=1;" parent="WIyWlLk6GJQsqaUBKTNV-1" vertex="1">
          <mxGeometry x="650" y="990" width="87" height="40" as="geometry" />
        </mxCell>
        <mxCell id="n1WyoDE3m9YggTQjJOGG-121" value="" style="rounded=0;whiteSpace=wrap;html=1;shadow=0;strokeColor=#DBDBDB;fillColor=#E6E6E6;gradientColor=none;" parent="WIyWlLk6GJQsqaUBKTNV-1" vertex="1">
          <mxGeometry x="644.84" y="1910" width="420" height="220" as="geometry" />
        </mxCell>
        <mxCell id="n1WyoDE3m9YggTQjJOGG-122" value="&lt;font style=&quot;font-size: 22px&quot;&gt;CM2&lt;/font&gt;" style="rounded=0;whiteSpace=wrap;html=1;shadow=0;strokeColor=#36393d;fillColor=#cce5ff;" parent="WIyWlLk6GJQsqaUBKTNV-1" vertex="1">
          <mxGeometry x="769" y="1860" width="140" height="40" as="geometry" />
        </mxCell>
        <mxCell id="n1WyoDE3m9YggTQjJOGG-123" value="&lt;font color=&quot;#ffffff&quot; style=&quot;font-size: 20px&quot;&gt;Part_0&lt;/font&gt;" style="rounded=1;whiteSpace=wrap;html=1;shadow=0;strokeColor=#DBDBDB;fillColor=#00994D;gradientColor=none;fontSize=20;" parent="WIyWlLk6GJQsqaUBKTNV-1" vertex="1">
          <mxGeometry x="654" y="2050" width="120" height="60" as="geometry" />
        </mxCell>
        <mxCell id="n1WyoDE3m9YggTQjJOGG-124" value="&lt;font color=&quot;#ffffff&quot; style=&quot;font-size: 20px&quot;&gt;Part_1&lt;/font&gt;" style="rounded=1;whiteSpace=wrap;html=1;shadow=0;strokeColor=#DBDBDB;fillColor=#00994D;gradientColor=none;fontSize=20;" parent="WIyWlLk6GJQsqaUBKTNV-1" vertex="1">
          <mxGeometry x="779" y="2050" width="120" height="60" as="geometry" />
        </mxCell>
        <mxCell id="n1WyoDE3m9YggTQjJOGG-125" value="&lt;font color=&quot;#ffffff&quot; style=&quot;font-size: 20px&quot;&gt;Part_N&lt;/font&gt;" style="rounded=1;whiteSpace=wrap;html=1;shadow=0;strokeColor=#DBDBDB;fillColor=#00994D;gradientColor=none;fontSize=20;" parent="WIyWlLk6GJQsqaUBKTNV-1" vertex="1">
          <mxGeometry x="926" y="2050" width="120" height="60" as="geometry" />
        </mxCell>
        <mxCell id="n1WyoDE3m9YggTQjJOGG-126" value="Searchers" style="text;html=1;resizable=0;autosize=1;align=center;verticalAlign=middle;points=[];fillColor=none;strokeColor=none;rounded=0;shadow=0;fontSize=20;" parent="WIyWlLk6GJQsqaUBKTNV-1" vertex="1">
          <mxGeometry x="640" y="1990" width="110" height="30" as="geometry" />
        </mxCell>
        <mxCell id="n1WyoDE3m9YggTQjJOGG-135" value="&lt;font color=&quot;#ffffff&quot; style=&quot;font-size: 20px&quot;&gt;Part_1&lt;/font&gt;" style="rounded=1;whiteSpace=wrap;html=1;shadow=0;strokeColor=#DBDBDB;fillColor=#00994D;gradientColor=none;fontSize=20;" parent="WIyWlLk6GJQsqaUBKTNV-1" vertex="1">
          <mxGeometry x="782" y="1920" width="120" height="60" as="geometry" />
        </mxCell>
        <mxCell id="n1WyoDE3m9YggTQjJOGG-129" value="" style="endArrow=classic;html=1;fontSize=20;exitX=0.5;exitY=0;exitDx=0;exitDy=0;entryX=0.5;entryY=1;entryDx=0;entryDy=0;" parent="WIyWlLk6GJQsqaUBKTNV-1" source="n1WyoDE3m9YggTQjJOGG-123" target="n1WyoDE3m9YggTQjJOGG-122" edge="1">
          <mxGeometry width="50" height="50" relative="1" as="geometry">
            <mxPoint x="1019" y="2000" as="sourcePoint" />
            <mxPoint x="1069" y="1950" as="targetPoint" />
          </mxGeometry>
        </mxCell>
        <mxCell id="n1WyoDE3m9YggTQjJOGG-130" value="" style="endArrow=classic;html=1;fontSize=20;exitX=0.5;exitY=0;exitDx=0;exitDy=0;entryX=0.5;entryY=1;entryDx=0;entryDy=0;" parent="WIyWlLk6GJQsqaUBKTNV-1" source="n1WyoDE3m9YggTQjJOGG-124" target="n1WyoDE3m9YggTQjJOGG-122" edge="1">
          <mxGeometry width="50" height="50" relative="1" as="geometry">
            <mxPoint x="724" y="2060" as="sourcePoint" />
            <mxPoint x="851" y="1910" as="targetPoint" />
          </mxGeometry>
        </mxCell>
        <mxCell id="n1WyoDE3m9YggTQjJOGG-131" value="" style="endArrow=classic;html=1;fontSize=20;exitX=0.5;exitY=0;exitDx=0;exitDy=0;entryX=0.5;entryY=1;entryDx=0;entryDy=0;" parent="WIyWlLk6GJQsqaUBKTNV-1" source="n1WyoDE3m9YggTQjJOGG-125" target="n1WyoDE3m9YggTQjJOGG-122" edge="1">
          <mxGeometry width="50" height="50" relative="1" as="geometry">
            <mxPoint x="734" y="2070" as="sourcePoint" />
            <mxPoint x="861" y="1920" as="targetPoint" />
          </mxGeometry>
        </mxCell>
        <mxCell id="n1WyoDE3m9YggTQjJOGG-133" value="..." style="text;html=1;resizable=0;autosize=1;align=center;verticalAlign=middle;points=[];fillColor=none;strokeColor=none;rounded=0;shadow=0;fontSize=20;" parent="WIyWlLk6GJQsqaUBKTNV-1" vertex="1">
          <mxGeometry x="896" y="2063" width="30" height="30" as="geometry" />
        </mxCell>
        <mxCell id="n1WyoDE3m9YggTQjJOGG-134" value="&lt;font color=&quot;#ffffff&quot; style=&quot;font-size: 20px&quot;&gt;Part_0&lt;/font&gt;" style="rounded=1;whiteSpace=wrap;html=1;shadow=0;strokeColor=#DBDBDB;fillColor=#00994D;gradientColor=none;fontSize=20;" parent="WIyWlLk6GJQsqaUBKTNV-1" vertex="1">
          <mxGeometry x="657" y="1920" width="120" height="60" as="geometry" />
        </mxCell>
        <mxCell id="n1WyoDE3m9YggTQjJOGG-136" value="&lt;font color=&quot;#ffffff&quot; style=&quot;font-size: 20px&quot;&gt;Part_N&lt;/font&gt;" style="rounded=1;whiteSpace=wrap;html=1;shadow=0;strokeColor=#DBDBDB;fillColor=#00994D;gradientColor=none;fontSize=20;" parent="WIyWlLk6GJQsqaUBKTNV-1" vertex="1">
          <mxGeometry x="929" y="1920" width="120" height="60" as="geometry" />
        </mxCell>
        <mxCell id="n1WyoDE3m9YggTQjJOGG-137" value="" style="endArrow=classic;html=1;fontSize=20;exitX=0.5;exitY=0;exitDx=0;exitDy=0;entryX=0.5;entryY=1;entryDx=0;entryDy=0;" parent="WIyWlLk6GJQsqaUBKTNV-1" source="n1WyoDE3m9YggTQjJOGG-136" target="n1WyoDE3m9YggTQjJOGG-122" edge="1">
          <mxGeometry width="50" height="50" relative="1" as="geometry">
            <mxPoint x="996" y="2060" as="sourcePoint" />
            <mxPoint x="849" y="1910" as="targetPoint" />
          </mxGeometry>
        </mxCell>
        <mxCell id="n1WyoDE3m9YggTQjJOGG-138" value="" style="endArrow=classic;html=1;fontSize=20;exitX=0.5;exitY=0;exitDx=0;exitDy=0;" parent="WIyWlLk6GJQsqaUBKTNV-1" source="n1WyoDE3m9YggTQjJOGG-134" edge="1">
          <mxGeometry width="50" height="50" relative="1" as="geometry">
            <mxPoint x="1006" y="2070" as="sourcePoint" />
            <mxPoint x="839" y="1900" as="targetPoint" />
          </mxGeometry>
        </mxCell>
        <mxCell id="n1WyoDE3m9YggTQjJOGG-139" value="..." style="text;html=1;resizable=0;autosize=1;align=center;verticalAlign=middle;points=[];fillColor=none;strokeColor=none;rounded=0;shadow=0;fontSize=20;" parent="WIyWlLk6GJQsqaUBKTNV-1" vertex="1">
          <mxGeometry x="902" y="1930" width="30" height="30" as="geometry" />
        </mxCell>
        <mxCell id="n1WyoDE3m9YggTQjJOGG-140" value="" style="rounded=0;whiteSpace=wrap;html=1;shadow=0;strokeColor=#DBDBDB;fillColor=#E6E6E6;gradientColor=none;" parent="WIyWlLk6GJQsqaUBKTNV-1" vertex="1">
          <mxGeometry x="719" y="1760" width="240" height="70" as="geometry" />
        </mxCell>
        <mxCell id="n1WyoDE3m9YggTQjJOGG-142" value="&lt;font color=&quot;#ffffff&quot; style=&quot;font-size: 20px&quot;&gt;QRS&lt;/font&gt;" style="rounded=1;whiteSpace=wrap;html=1;shadow=0;strokeColor=#DBDBDB;fillColor=#CC99FF;gradientColor=none;fontSize=20;" parent="WIyWlLk6GJQsqaUBKTNV-1" vertex="1">
          <mxGeometry x="844.79" y="1770" width="101.21" height="50" as="geometry" />
        </mxCell>
        <mxCell id="n1WyoDE3m9YggTQjJOGG-143" value="&lt;font color=&quot;#ffffff&quot; style=&quot;font-size: 20px&quot;&gt;QRS&lt;/font&gt;" style="rounded=1;whiteSpace=wrap;html=1;shadow=0;strokeColor=#DBDBDB;fillColor=#CC99FF;gradientColor=none;fontSize=20;" parent="WIyWlLk6GJQsqaUBKTNV-1" vertex="1">
          <mxGeometry x="727" y="1770" width="101.21" height="50" as="geometry" />
        </mxCell>
        <mxCell id="n1WyoDE3m9YggTQjJOGG-144" value="" style="endArrow=classic;html=1;fontSize=20;entryX=0.5;entryY=1;entryDx=0;entryDy=0;exitX=0.5;exitY=0;exitDx=0;exitDy=0;" parent="WIyWlLk6GJQsqaUBKTNV-1" source="n1WyoDE3m9YggTQjJOGG-122" target="n1WyoDE3m9YggTQjJOGG-140" edge="1">
          <mxGeometry width="50" height="50" relative="1" as="geometry">
            <mxPoint x="1019" y="1680" as="sourcePoint" />
            <mxPoint x="1069" y="1630" as="targetPoint" />
          </mxGeometry>
        </mxCell>
        <mxCell id="n1WyoDE3m9YggTQjJOGG-145" value="" style="rounded=0;whiteSpace=wrap;html=1;shadow=0;strokeColor=#DBDBDB;fillColor=#E6E6E6;gradientColor=none;" parent="WIyWlLk6GJQsqaUBKTNV-1" vertex="1">
          <mxGeometry x="1095.8400000000001" y="1910" width="420" height="220" as="geometry" />
        </mxCell>
        <mxCell id="n1WyoDE3m9YggTQjJOGG-146" value="&lt;font style=&quot;font-size: 22px&quot;&gt;CM2&lt;/font&gt;" style="rounded=0;whiteSpace=wrap;html=1;shadow=0;strokeColor=#36393d;fillColor=#cce5ff;" parent="WIyWlLk6GJQsqaUBKTNV-1" vertex="1">
          <mxGeometry x="1220" y="1860" width="140" height="40" as="geometry" />
        </mxCell>
        <mxCell id="n1WyoDE3m9YggTQjJOGG-147" value="&lt;font color=&quot;#ffffff&quot; style=&quot;font-size: 20px&quot;&gt;Part_0&lt;/font&gt;" style="rounded=1;whiteSpace=wrap;html=1;shadow=0;strokeColor=#DBDBDB;fillColor=#00994D;gradientColor=none;fontSize=20;" parent="WIyWlLk6GJQsqaUBKTNV-1" vertex="1">
          <mxGeometry x="1105" y="2050" width="120" height="60" as="geometry" />
        </mxCell>
        <mxCell id="n1WyoDE3m9YggTQjJOGG-148" value="&lt;font color=&quot;#ffffff&quot; style=&quot;font-size: 20px&quot;&gt;Part_1&lt;/font&gt;" style="rounded=1;whiteSpace=wrap;html=1;shadow=0;strokeColor=#DBDBDB;fillColor=#00994D;gradientColor=none;fontSize=20;" parent="WIyWlLk6GJQsqaUBKTNV-1" vertex="1">
          <mxGeometry x="1230" y="2050" width="120" height="60" as="geometry" />
        </mxCell>
        <mxCell id="n1WyoDE3m9YggTQjJOGG-149" value="&lt;font color=&quot;#ffffff&quot; style=&quot;font-size: 20px&quot;&gt;Part_N&lt;/font&gt;" style="rounded=1;whiteSpace=wrap;html=1;shadow=0;strokeColor=#DBDBDB;fillColor=#00994D;gradientColor=none;fontSize=20;" parent="WIyWlLk6GJQsqaUBKTNV-1" vertex="1">
          <mxGeometry x="1377" y="2050" width="120" height="60" as="geometry" />
        </mxCell>
        <mxCell id="n1WyoDE3m9YggTQjJOGG-150" value="Searchers" style="text;html=1;resizable=0;autosize=1;align=center;verticalAlign=middle;points=[];fillColor=none;strokeColor=none;rounded=0;shadow=0;fontSize=20;" parent="WIyWlLk6GJQsqaUBKTNV-1" vertex="1">
          <mxGeometry x="1091" y="1990" width="110" height="30" as="geometry" />
        </mxCell>
        <mxCell id="n1WyoDE3m9YggTQjJOGG-151" value="&lt;font color=&quot;#ffffff&quot; style=&quot;font-size: 20px&quot;&gt;Part_1&lt;/font&gt;" style="rounded=1;whiteSpace=wrap;html=1;shadow=0;strokeColor=#DBDBDB;fillColor=#00994D;gradientColor=none;fontSize=20;" parent="WIyWlLk6GJQsqaUBKTNV-1" vertex="1">
          <mxGeometry x="1233" y="1920" width="120" height="60" as="geometry" />
        </mxCell>
        <mxCell id="n1WyoDE3m9YggTQjJOGG-152" value="" style="endArrow=classic;html=1;fontSize=20;exitX=0.5;exitY=0;exitDx=0;exitDy=0;entryX=0.5;entryY=1;entryDx=0;entryDy=0;" parent="WIyWlLk6GJQsqaUBKTNV-1" source="n1WyoDE3m9YggTQjJOGG-147" target="n1WyoDE3m9YggTQjJOGG-146" edge="1">
          <mxGeometry width="50" height="50" relative="1" as="geometry">
            <mxPoint x="1470" y="2000" as="sourcePoint" />
            <mxPoint x="1520" y="1950" as="targetPoint" />
          </mxGeometry>
        </mxCell>
        <mxCell id="n1WyoDE3m9YggTQjJOGG-153" value="" style="endArrow=classic;html=1;fontSize=20;exitX=0.5;exitY=0;exitDx=0;exitDy=0;entryX=0.5;entryY=1;entryDx=0;entryDy=0;" parent="WIyWlLk6GJQsqaUBKTNV-1" source="n1WyoDE3m9YggTQjJOGG-148" target="n1WyoDE3m9YggTQjJOGG-146" edge="1">
          <mxGeometry width="50" height="50" relative="1" as="geometry">
            <mxPoint x="1175" y="2060" as="sourcePoint" />
            <mxPoint x="1302" y="1910" as="targetPoint" />
          </mxGeometry>
        </mxCell>
        <mxCell id="n1WyoDE3m9YggTQjJOGG-154" value="" style="endArrow=classic;html=1;fontSize=20;exitX=0.5;exitY=0;exitDx=0;exitDy=0;entryX=0.5;entryY=1;entryDx=0;entryDy=0;" parent="WIyWlLk6GJQsqaUBKTNV-1" source="n1WyoDE3m9YggTQjJOGG-149" target="n1WyoDE3m9YggTQjJOGG-146" edge="1">
          <mxGeometry width="50" height="50" relative="1" as="geometry">
            <mxPoint x="1185" y="2070" as="sourcePoint" />
            <mxPoint x="1312" y="1920" as="targetPoint" />
          </mxGeometry>
        </mxCell>
        <mxCell id="n1WyoDE3m9YggTQjJOGG-155" value="..." style="text;html=1;resizable=0;autosize=1;align=center;verticalAlign=middle;points=[];fillColor=none;strokeColor=none;rounded=0;shadow=0;fontSize=20;" parent="WIyWlLk6GJQsqaUBKTNV-1" vertex="1">
          <mxGeometry x="1347" y="2063" width="30" height="30" as="geometry" />
        </mxCell>
        <mxCell id="n1WyoDE3m9YggTQjJOGG-156" value="&lt;font color=&quot;#ffffff&quot; style=&quot;font-size: 20px&quot;&gt;Part_0&lt;/font&gt;" style="rounded=1;whiteSpace=wrap;html=1;shadow=0;strokeColor=#DBDBDB;fillColor=#00994D;gradientColor=none;fontSize=20;" parent="WIyWlLk6GJQsqaUBKTNV-1" vertex="1">
          <mxGeometry x="1108" y="1920" width="120" height="60" as="geometry" />
        </mxCell>
        <mxCell id="n1WyoDE3m9YggTQjJOGG-157" value="&lt;font color=&quot;#ffffff&quot; style=&quot;font-size: 20px&quot;&gt;Part_N&lt;/font&gt;" style="rounded=1;whiteSpace=wrap;html=1;shadow=0;strokeColor=#DBDBDB;fillColor=#00994D;gradientColor=none;fontSize=20;" parent="WIyWlLk6GJQsqaUBKTNV-1" vertex="1">
          <mxGeometry x="1380" y="1920" width="120" height="60" as="geometry" />
        </mxCell>
        <mxCell id="n1WyoDE3m9YggTQjJOGG-158" value="" style="endArrow=classic;html=1;fontSize=20;exitX=0.5;exitY=0;exitDx=0;exitDy=0;entryX=0.5;entryY=1;entryDx=0;entryDy=0;" parent="WIyWlLk6GJQsqaUBKTNV-1" source="n1WyoDE3m9YggTQjJOGG-157" target="n1WyoDE3m9YggTQjJOGG-146" edge="1">
          <mxGeometry width="50" height="50" relative="1" as="geometry">
            <mxPoint x="1447" y="2060" as="sourcePoint" />
            <mxPoint x="1300" y="1910" as="targetPoint" />
          </mxGeometry>
        </mxCell>
        <mxCell id="n1WyoDE3m9YggTQjJOGG-159" value="" style="endArrow=classic;html=1;fontSize=20;exitX=0.5;exitY=0;exitDx=0;exitDy=0;" parent="WIyWlLk6GJQsqaUBKTNV-1" source="n1WyoDE3m9YggTQjJOGG-156" edge="1">
          <mxGeometry width="50" height="50" relative="1" as="geometry">
            <mxPoint x="1457" y="2070" as="sourcePoint" />
            <mxPoint x="1290" y="1900" as="targetPoint" />
          </mxGeometry>
        </mxCell>
        <mxCell id="n1WyoDE3m9YggTQjJOGG-160" value="..." style="text;html=1;resizable=0;autosize=1;align=center;verticalAlign=middle;points=[];fillColor=none;strokeColor=none;rounded=0;shadow=0;fontSize=20;" parent="WIyWlLk6GJQsqaUBKTNV-1" vertex="1">
          <mxGeometry x="1353" y="1930" width="30" height="30" as="geometry" />
        </mxCell>
        <mxCell id="n1WyoDE3m9YggTQjJOGG-161" value="" style="rounded=0;whiteSpace=wrap;html=1;shadow=0;strokeColor=#DBDBDB;fillColor=#E6E6E6;gradientColor=none;" parent="WIyWlLk6GJQsqaUBKTNV-1" vertex="1">
          <mxGeometry x="1170" y="1760" width="240" height="70" as="geometry" />
        </mxCell>
        <mxCell id="n1WyoDE3m9YggTQjJOGG-162" value="&lt;font color=&quot;#ffffff&quot; style=&quot;font-size: 20px&quot;&gt;QRS&lt;/font&gt;" style="rounded=1;whiteSpace=wrap;html=1;shadow=0;strokeColor=#DBDBDB;fillColor=#CC99FF;gradientColor=none;fontSize=20;" parent="WIyWlLk6GJQsqaUBKTNV-1" vertex="1">
          <mxGeometry x="1295.79" y="1770" width="101.21" height="50" as="geometry" />
        </mxCell>
        <mxCell id="n1WyoDE3m9YggTQjJOGG-163" value="&lt;font color=&quot;#ffffff&quot; style=&quot;font-size: 20px&quot;&gt;QRS&lt;/font&gt;" style="rounded=1;whiteSpace=wrap;html=1;shadow=0;strokeColor=#DBDBDB;fillColor=#CC99FF;gradientColor=none;fontSize=20;" parent="WIyWlLk6GJQsqaUBKTNV-1" vertex="1">
          <mxGeometry x="1178" y="1770" width="101.21" height="50" as="geometry" />
        </mxCell>
        <mxCell id="n1WyoDE3m9YggTQjJOGG-164" value="" style="endArrow=classic;html=1;fontSize=20;entryX=0.5;entryY=1;entryDx=0;entryDy=0;exitX=0.5;exitY=0;exitDx=0;exitDy=0;" parent="WIyWlLk6GJQsqaUBKTNV-1" source="n1WyoDE3m9YggTQjJOGG-146" target="n1WyoDE3m9YggTQjJOGG-161" edge="1">
          <mxGeometry width="50" height="50" relative="1" as="geometry">
            <mxPoint x="1470" y="1680" as="sourcePoint" />
            <mxPoint x="1520" y="1630" as="targetPoint" />
          </mxGeometry>
        </mxCell>
        <mxCell id="n1WyoDE3m9YggTQjJOGG-165" value="" style="rounded=0;whiteSpace=wrap;html=1;shadow=0;strokeColor=#DBDBDB;fillColor=#E6E6E6;gradientColor=none;" parent="WIyWlLk6GJQsqaUBKTNV-1" vertex="1">
          <mxGeometry x="1553.84" y="1910" width="420" height="220" as="geometry" />
        </mxCell>
        <mxCell id="n1WyoDE3m9YggTQjJOGG-166" value="&lt;font style=&quot;font-size: 22px&quot;&gt;CM2&lt;/font&gt;" style="rounded=0;whiteSpace=wrap;html=1;shadow=0;strokeColor=#36393d;fillColor=#cce5ff;" parent="WIyWlLk6GJQsqaUBKTNV-1" vertex="1">
          <mxGeometry x="1678" y="1860" width="140" height="40" as="geometry" />
        </mxCell>
        <mxCell id="n1WyoDE3m9YggTQjJOGG-167" value="&lt;font color=&quot;#ffffff&quot; style=&quot;font-size: 20px&quot;&gt;Part_0&lt;/font&gt;" style="rounded=1;whiteSpace=wrap;html=1;shadow=0;strokeColor=#DBDBDB;fillColor=#00994D;gradientColor=none;fontSize=20;" parent="WIyWlLk6GJQsqaUBKTNV-1" vertex="1">
          <mxGeometry x="1563" y="2050" width="120" height="60" as="geometry" />
        </mxCell>
        <mxCell id="n1WyoDE3m9YggTQjJOGG-168" value="&lt;font color=&quot;#ffffff&quot; style=&quot;font-size: 20px&quot;&gt;Part_1&lt;/font&gt;" style="rounded=1;whiteSpace=wrap;html=1;shadow=0;strokeColor=#DBDBDB;fillColor=#00994D;gradientColor=none;fontSize=20;" parent="WIyWlLk6GJQsqaUBKTNV-1" vertex="1">
          <mxGeometry x="1688" y="2050" width="120" height="60" as="geometry" />
        </mxCell>
        <mxCell id="n1WyoDE3m9YggTQjJOGG-169" value="&lt;font color=&quot;#ffffff&quot; style=&quot;font-size: 20px&quot;&gt;Part_N&lt;/font&gt;" style="rounded=1;whiteSpace=wrap;html=1;shadow=0;strokeColor=#DBDBDB;fillColor=#00994D;gradientColor=none;fontSize=20;" parent="WIyWlLk6GJQsqaUBKTNV-1" vertex="1">
          <mxGeometry x="1835" y="2050" width="120" height="60" as="geometry" />
        </mxCell>
        <mxCell id="n1WyoDE3m9YggTQjJOGG-170" value="Searchers" style="text;html=1;resizable=0;autosize=1;align=center;verticalAlign=middle;points=[];fillColor=none;strokeColor=none;rounded=0;shadow=0;fontSize=20;" parent="WIyWlLk6GJQsqaUBKTNV-1" vertex="1">
          <mxGeometry x="1549" y="1990" width="110" height="30" as="geometry" />
        </mxCell>
        <mxCell id="n1WyoDE3m9YggTQjJOGG-171" value="&lt;font color=&quot;#ffffff&quot; style=&quot;font-size: 20px&quot;&gt;Part_1&lt;/font&gt;" style="rounded=1;whiteSpace=wrap;html=1;shadow=0;strokeColor=#DBDBDB;fillColor=#00994D;gradientColor=none;fontSize=20;" parent="WIyWlLk6GJQsqaUBKTNV-1" vertex="1">
          <mxGeometry x="1691" y="1920" width="120" height="60" as="geometry" />
        </mxCell>
        <mxCell id="n1WyoDE3m9YggTQjJOGG-172" value="" style="endArrow=classic;html=1;fontSize=20;exitX=0.5;exitY=0;exitDx=0;exitDy=0;entryX=0.5;entryY=1;entryDx=0;entryDy=0;" parent="WIyWlLk6GJQsqaUBKTNV-1" source="n1WyoDE3m9YggTQjJOGG-167" target="n1WyoDE3m9YggTQjJOGG-166" edge="1">
          <mxGeometry width="50" height="50" relative="1" as="geometry">
            <mxPoint x="1928" y="2000" as="sourcePoint" />
            <mxPoint x="1978" y="1950" as="targetPoint" />
          </mxGeometry>
        </mxCell>
        <mxCell id="n1WyoDE3m9YggTQjJOGG-173" value="" style="endArrow=classic;html=1;fontSize=20;exitX=0.5;exitY=0;exitDx=0;exitDy=0;entryX=0.5;entryY=1;entryDx=0;entryDy=0;" parent="WIyWlLk6GJQsqaUBKTNV-1" source="n1WyoDE3m9YggTQjJOGG-168" target="n1WyoDE3m9YggTQjJOGG-166" edge="1">
          <mxGeometry width="50" height="50" relative="1" as="geometry">
            <mxPoint x="1633" y="2060" as="sourcePoint" />
            <mxPoint x="1760" y="1910" as="targetPoint" />
          </mxGeometry>
        </mxCell>
        <mxCell id="n1WyoDE3m9YggTQjJOGG-174" value="" style="endArrow=classic;html=1;fontSize=20;exitX=0.5;exitY=0;exitDx=0;exitDy=0;entryX=0.5;entryY=1;entryDx=0;entryDy=0;" parent="WIyWlLk6GJQsqaUBKTNV-1" source="n1WyoDE3m9YggTQjJOGG-169" target="n1WyoDE3m9YggTQjJOGG-166" edge="1">
          <mxGeometry width="50" height="50" relative="1" as="geometry">
            <mxPoint x="1643" y="2070" as="sourcePoint" />
            <mxPoint x="1770" y="1920" as="targetPoint" />
          </mxGeometry>
        </mxCell>
        <mxCell id="n1WyoDE3m9YggTQjJOGG-175" value="..." style="text;html=1;resizable=0;autosize=1;align=center;verticalAlign=middle;points=[];fillColor=none;strokeColor=none;rounded=0;shadow=0;fontSize=20;" parent="WIyWlLk6GJQsqaUBKTNV-1" vertex="1">
          <mxGeometry x="1805" y="2063" width="30" height="30" as="geometry" />
        </mxCell>
        <mxCell id="n1WyoDE3m9YggTQjJOGG-176" value="&lt;font color=&quot;#ffffff&quot; style=&quot;font-size: 20px&quot;&gt;Part_0&lt;/font&gt;" style="rounded=1;whiteSpace=wrap;html=1;shadow=0;strokeColor=#DBDBDB;fillColor=#00994D;gradientColor=none;fontSize=20;" parent="WIyWlLk6GJQsqaUBKTNV-1" vertex="1">
          <mxGeometry x="1566" y="1920" width="120" height="60" as="geometry" />
        </mxCell>
        <mxCell id="n1WyoDE3m9YggTQjJOGG-177" value="&lt;font color=&quot;#ffffff&quot; style=&quot;font-size: 20px&quot;&gt;Part_N&lt;/font&gt;" style="rounded=1;whiteSpace=wrap;html=1;shadow=0;strokeColor=#DBDBDB;fillColor=#00994D;gradientColor=none;fontSize=20;" parent="WIyWlLk6GJQsqaUBKTNV-1" vertex="1">
          <mxGeometry x="1838" y="1920" width="120" height="60" as="geometry" />
        </mxCell>
        <mxCell id="n1WyoDE3m9YggTQjJOGG-178" value="" style="endArrow=classic;html=1;fontSize=20;exitX=0.5;exitY=0;exitDx=0;exitDy=0;entryX=0.5;entryY=1;entryDx=0;entryDy=0;" parent="WIyWlLk6GJQsqaUBKTNV-1" source="n1WyoDE3m9YggTQjJOGG-177" target="n1WyoDE3m9YggTQjJOGG-166" edge="1">
          <mxGeometry width="50" height="50" relative="1" as="geometry">
            <mxPoint x="1905" y="2060" as="sourcePoint" />
            <mxPoint x="1758" y="1910" as="targetPoint" />
          </mxGeometry>
        </mxCell>
        <mxCell id="n1WyoDE3m9YggTQjJOGG-179" value="" style="endArrow=classic;html=1;fontSize=20;exitX=0.5;exitY=0;exitDx=0;exitDy=0;" parent="WIyWlLk6GJQsqaUBKTNV-1" source="n1WyoDE3m9YggTQjJOGG-176" edge="1">
          <mxGeometry width="50" height="50" relative="1" as="geometry">
            <mxPoint x="1915" y="2070" as="sourcePoint" />
            <mxPoint x="1748" y="1900" as="targetPoint" />
          </mxGeometry>
        </mxCell>
        <mxCell id="n1WyoDE3m9YggTQjJOGG-180" value="..." style="text;html=1;resizable=0;autosize=1;align=center;verticalAlign=middle;points=[];fillColor=none;strokeColor=none;rounded=0;shadow=0;fontSize=20;" parent="WIyWlLk6GJQsqaUBKTNV-1" vertex="1">
          <mxGeometry x="1811" y="1930" width="30" height="30" as="geometry" />
        </mxCell>
        <mxCell id="n1WyoDE3m9YggTQjJOGG-181" value="" style="rounded=0;whiteSpace=wrap;html=1;shadow=0;strokeColor=#DBDBDB;fillColor=#E6E6E6;gradientColor=none;" parent="WIyWlLk6GJQsqaUBKTNV-1" vertex="1">
          <mxGeometry x="1628" y="1760" width="240" height="70" as="geometry" />
        </mxCell>
        <mxCell id="n1WyoDE3m9YggTQjJOGG-182" value="&lt;font color=&quot;#ffffff&quot; style=&quot;font-size: 20px&quot;&gt;QRS&lt;/font&gt;" style="rounded=1;whiteSpace=wrap;html=1;shadow=0;strokeColor=#DBDBDB;fillColor=#CC99FF;gradientColor=none;fontSize=20;" parent="WIyWlLk6GJQsqaUBKTNV-1" vertex="1">
          <mxGeometry x="1753.79" y="1770" width="101.21" height="50" as="geometry" />
        </mxCell>
        <mxCell id="n1WyoDE3m9YggTQjJOGG-183" value="&lt;font color=&quot;#ffffff&quot; style=&quot;font-size: 20px&quot;&gt;QRS&lt;/font&gt;" style="rounded=1;whiteSpace=wrap;html=1;shadow=0;strokeColor=#DBDBDB;fillColor=#CC99FF;gradientColor=none;fontSize=20;" parent="WIyWlLk6GJQsqaUBKTNV-1" vertex="1">
          <mxGeometry x="1636" y="1770" width="101.21" height="50" as="geometry" />
        </mxCell>
        <mxCell id="n1WyoDE3m9YggTQjJOGG-184" value="" style="endArrow=classic;html=1;fontSize=20;entryX=0.5;entryY=1;entryDx=0;entryDy=0;exitX=0.5;exitY=0;exitDx=0;exitDy=0;" parent="WIyWlLk6GJQsqaUBKTNV-1" source="n1WyoDE3m9YggTQjJOGG-166" target="n1WyoDE3m9YggTQjJOGG-181" edge="1">
          <mxGeometry width="50" height="50" relative="1" as="geometry">
            <mxPoint x="1928" y="1680" as="sourcePoint" />
            <mxPoint x="1978" y="1630" as="targetPoint" />
          </mxGeometry>
        </mxCell>
        <mxCell id="n1WyoDE3m9YggTQjJOGG-185" value="&lt;font style=&quot;font-size: 22px&quot;&gt;CM2 / VIPServer&lt;/font&gt;" style="rounded=0;whiteSpace=wrap;html=1;shadow=0;strokeColor=#36393d;fillColor=#cce5ff;fontColor=#000000;" parent="WIyWlLk6GJQsqaUBKTNV-1" vertex="1">
          <mxGeometry x="738" y="1690" width="211" height="40" as="geometry" />
        </mxCell>
        <mxCell id="n1WyoDE3m9YggTQjJOGG-186" value="&lt;font style=&quot;font-size: 22px&quot;&gt;CM2 / VIPServer&lt;/font&gt;" style="rounded=0;whiteSpace=wrap;html=1;shadow=0;strokeColor=#36393d;fillColor=#cce5ff;" parent="WIyWlLk6GJQsqaUBKTNV-1" vertex="1">
          <mxGeometry x="1183" y="1699" width="211" height="40" as="geometry" />
        </mxCell>
        <mxCell id="n1WyoDE3m9YggTQjJOGG-187" value="&lt;font style=&quot;font-size: 22px&quot;&gt;CM2 / VIPServer&lt;/font&gt;" style="rounded=0;whiteSpace=wrap;html=1;shadow=0;strokeColor=#36393d;fillColor=#cce5ff;" parent="WIyWlLk6GJQsqaUBKTNV-1" vertex="1">
          <mxGeometry x="1642" y="1698" width="211" height="40" as="geometry" />
        </mxCell>
        <mxCell id="n1WyoDE3m9YggTQjJOGG-189" value="" style="endArrow=classic;html=1;fontSize=20;entryX=0.45;entryY=0.981;entryDx=0;entryDy=0;entryPerimeter=0;exitX=0.475;exitY=-0.011;exitDx=0;exitDy=0;exitPerimeter=0;" parent="WIyWlLk6GJQsqaUBKTNV-1" source="n1WyoDE3m9YggTQjJOGG-140" target="n1WyoDE3m9YggTQjJOGG-185" edge="1">
          <mxGeometry width="50" height="50" relative="1" as="geometry">
            <mxPoint x="832" y="1750" as="sourcePoint" />
            <mxPoint x="849" y="1840" as="targetPoint" />
          </mxGeometry>
        </mxCell>
        <mxCell id="n1WyoDE3m9YggTQjJOGG-190" value="" style="endArrow=classic;html=1;fontSize=20;entryX=0.5;entryY=1;entryDx=0;entryDy=0;" parent="WIyWlLk6GJQsqaUBKTNV-1" source="n1WyoDE3m9YggTQjJOGG-161" target="n1WyoDE3m9YggTQjJOGG-186" edge="1">
          <mxGeometry width="50" height="50" relative="1" as="geometry">
            <mxPoint x="859" y="1880" as="sourcePoint" />
            <mxPoint x="859" y="1850" as="targetPoint" />
          </mxGeometry>
        </mxCell>
        <mxCell id="n1WyoDE3m9YggTQjJOGG-191" value="" style="endArrow=classic;html=1;fontSize=20;entryX=0.5;entryY=1;entryDx=0;entryDy=0;exitX=0.5;exitY=0;exitDx=0;exitDy=0;" parent="WIyWlLk6GJQsqaUBKTNV-1" source="n1WyoDE3m9YggTQjJOGG-181" target="n1WyoDE3m9YggTQjJOGG-187" edge="1">
          <mxGeometry width="50" height="50" relative="1" as="geometry">
            <mxPoint x="1299.0625" y="1770" as="sourcePoint" />
            <mxPoint x="1298.5" y="1749" as="targetPoint" />
          </mxGeometry>
        </mxCell>
        <mxCell id="n1WyoDE3m9YggTQjJOGG-192" value="&lt;font color=&quot;#ffffff&quot; style=&quot;font-size: 22px&quot;&gt;TPP / SPL&amp;nbsp;&lt;/font&gt;" style="rounded=0;whiteSpace=wrap;html=1;shadow=0;strokeColor=#36393d;fillColor=#00CCCC;" parent="WIyWlLk6GJQsqaUBKTNV-1" vertex="1">
          <mxGeometry x="1181.5" y="1599" width="211" height="40" as="geometry" />
        </mxCell>
        <mxCell id="n1WyoDE3m9YggTQjJOGG-193" value="" style="endArrow=classic;html=1;fontSize=20;exitX=0.5;exitY=0;exitDx=0;exitDy=0;" parent="WIyWlLk6GJQsqaUBKTNV-1" source="n1WyoDE3m9YggTQjJOGG-186" target="n1WyoDE3m9YggTQjJOGG-192" edge="1">
          <mxGeometry width="50" height="50" relative="1" as="geometry">
            <mxPoint x="1210" y="1860" as="sourcePoint" />
            <mxPoint x="1290" y="1700" as="targetPoint" />
          </mxGeometry>
        </mxCell>
        <mxCell id="n1WyoDE3m9YggTQjJOGG-194" value="" style="endArrow=classic;html=1;fontSize=20;exitX=0.5;exitY=0;exitDx=0;exitDy=0;entryX=0.5;entryY=1;entryDx=0;entryDy=0;" parent="WIyWlLk6GJQsqaUBKTNV-1" source="n1WyoDE3m9YggTQjJOGG-187" target="n1WyoDE3m9YggTQjJOGG-192" edge="1">
          <mxGeometry width="50" height="50" relative="1" as="geometry">
            <mxPoint x="1298.5" y="1709" as="sourcePoint" />
            <mxPoint x="1301.695652173913" y="1660" as="targetPoint" />
          </mxGeometry>
        </mxCell>
        <mxCell id="n1WyoDE3m9YggTQjJOGG-195" value="" style="endArrow=classic;html=1;fontSize=20;exitX=0.5;exitY=0;exitDx=0;exitDy=0;" parent="WIyWlLk6GJQsqaUBKTNV-1" source="n1WyoDE3m9YggTQjJOGG-185" edge="1">
          <mxGeometry width="50" height="50" relative="1" as="geometry">
            <mxPoint x="1757.5" y="1708" as="sourcePoint" />
            <mxPoint x="1290" y="1640" as="targetPoint" />
          </mxGeometry>
        </mxCell>
        <mxCell id="s08Ji13Y1CFmz7NRCLcD-0" value="" style="endArrow=none;dashed=1;html=1;" edge="1" parent="WIyWlLk6GJQsqaUBKTNV-1">
          <mxGeometry width="50" height="50" relative="1" as="geometry">
            <mxPoint x="590" y="890" as="sourcePoint" />
            <mxPoint x="640" y="840" as="targetPoint" />
          </mxGeometry>
        </mxCell>
      </root>
    </mxGraphModel>
  </diagram>
</mxfile>
